<svg xmlns="http://www.w3.org/2000/svg" fill="none" viewBox="0 0 512 512"><path fill="url(#paint0_linear_10161_43)" d="M0 0h512v512h-512z"/><path fill="#fff" d="M253.62 412q-25.93 0-44.99-7.79-19.05-7.78-29.1-27.51-9.53-19.74-9.53-55.56v-17.65h51.87v21.8q0 21.82 4.23 33.75t11.64 16.62q7.41 4.14 16.94 4.15 15.34 0 24.34-9.87 9.53-10.38 9.53-38.42 0-20.76-6.35-31.15-6.36-10.38-20.11-16.61-13.24-6.75-34.4-15.06-17.47-7.8-30.17-18.17t-19.05-26.48-6.35-39.98q0-29.07 7.4-47.24 7.95-18.7 26.47-27 18.52-8.83 49.75-8.83 40.21 0 61.39 18.17 21.16 17.66 21.17 51.92v35.83h-49.75v-21.3q0-23.87-7.94-34.26-7.41-10.9-24.35-10.9-17.45 0-25.4 10.38-7.4 9.87-7.4 31.67 0 18.7 7.4 29.08a52 52 0 0 0 19.05 15.57q12.18 5.71 24.88 10.39 23.82 8.82 38.63 18.17t21.7 24.92q6.88 15.59 6.88 44.13 0 32.72-11.11 51.93-10.6 18.68-30.7 27-19.58 8.3-46.57 8.3"/><defs><linearGradient id="paint0_linear_10161_43" x1="101.243" x2="541.62" y1="0.000153944" y2="54.4994" gradientUnits="userSpaceOnUse"><stop stop-color="#ED0233"/><stop offset="1" stop-color="#003EB7"/></linearGradient></defs></svg>