<svg xmlns="http://www.w3.org/2000/svg" xmlns:xlink="http://www.w3.org/1999/xlink"><symbol id="sprite-arrow" fill="none" viewBox="0 0 17 32"><path stroke="#102654" d="m1 0 16 16-16 16"/></symbol><use xlink:href="#sprite-arrow" width="17" height="32"/><view id="sprite-arrow-view" viewBox="0 0 17 32"/><symbol id="sprite-logo" fill="none" viewBox="0 0 100 20"><path fill="#fff" d="M86.91.28h2.78l3.2 13.3 3.2-13.3h2.46l-4.47 19.45h-2.37zm-1.12 0h2.64l.41 12.83v6.62h-3.05zm11.55 0h2.66v19.45h-3.05v-6.62zm-21.24 0 2.4 8.76 2.38-8.76h3.45l-4.24 12.39v7.06h-3.19v-7.06l-4.24-12.39zm-3.84 9.23v8.02q-.33.45-.98 1.03a6 6 0 0 1-4.19 1.44 5 5 0 0 1-4.2-2.04 8 8 0 0 1-1.16-2.6q-.4-1.56-.4-3.7v-3.31q0-2.1.38-3.67a8 8 0 0 1 1.12-2.62 4.7 4.7 0 0 1 4.07-2.06q1.77 0 2.9.73a4.5 4.5 0 0 1 1.73 2.18q.6 1.44.72 3.54h-3.06a7 7 0 0 0-.34-1.92q-.24-.7-.7-.99t-1.18-.3q-.62 0-1.09.27-.46.27-.78.89-.3.6-.46 1.57c-.16.97-.15 1.43-.15 2.35v3.34q0 1.38.17 2.35c.17.97.28 1.18.5 1.6q.36.6.87.89.53.27 1.25.27a2.3 2.3 0 0 0 1.47-.45l.35-.27v-3.59h-2.26v-2.95zm-23.71-9.23h5.04q1.58 0 2.7.67a4.3 4.3 0 0 1 1.7 1.98q.6 1.3.6 3.23 0 1.57-.35 2.7a5 5 0 0 1-.98 1.85q-.64.75-1.53 1.18l-.96.7h-4.1v-3.24h2.84q.65 0 1.07-.35.43-.36.64-1c.21-.64.21-.94.21-1.52q0-.92-.2-1.58a2 2 0 0 0-.59-1.01 1.5 1.5 0 0 0-1.05-.36h-1.88v16.2h-3.16zm7.14 19.45-2.88-8.67 3.31-.01 2.95 8.5v.18zm-9.78-3.23v3.23h-6.84v-3.23zm-5.86-16.22v19.45h-3.16v-19.45zm4.94 7.88v3.14h-5.92v-3.14zm.9-7.88v3.25h-6.82v-3.25zm-15.45 12.6h-3.22v-3.25h3.22q.67 0 1.1-.37.42-.38.62-1.03a5.7 5.7 0 0 0-.01-3.06 3 3 0 0 0-.62-1.19 1.4 1.4 0 0 0-1.09-.45h-2.2v16.2h-3.16v-19.45h5.36q1.59 0 2.73.83a5 5 0 0 1 1.76 2.28q.6 1.45.61 3.32c.01 1.87-.2 2.34-.61 3.27q-.61 1.38-1.76 2.14-1.14.75-2.73.76m-10.94-12.6h3.16v13.36a9 9 0 0 1-.67 3.66 4.4 4.4 0 0 1-1.83 2.06q-1.17.64-2.67.64c-1.5 0-1.9-.21-2.7-.64a4.4 4.4 0 0 1-1.83-2.06 9 9 0 0 1-.65-3.66v-13.36h3.16v13.36q0 1.28.23 1.95.23.69.68.94.45.24 1.11.24t1.1-.24q.45-.25.67-.94.24-.68.24-1.95zm-12.37 14.34q0-.53-.07-.95a2 2 0 0 0-.33-.8 3 3 0 0 0-.7-.71q-.45-.37-1.19-.75-.87-.45-1.7-.96a8 8 0 0 1-1.48-1.2 5.2 5.2 0 0 1-1.42-3.8q0-1.23.35-2.23a5 5 0 0 1 2.61-2.82 5.1 5.1 0 0 1 4.64.39 5 5 0 0 1 1.72 2.12q.6 1.35.61 3.1h-3.15q0-.83-.2-1.45a2 2 0 0 0-.6-1 1.6 1.6 0 0 0-1.05-.37q-.6 0-1 .31-.4.3-.6.82-.17.5-.18 1.14a2 2 0 0 0 .19.87q.19.38.53.68.33.3.79.58t1.01.55q1.08.52 1.9 1.15a6 6 0 0 1 2.2 3.11 8 8 0 0 1-.07 4.4 4.4 4.4 0 0 1-2.55 2.8 5.7 5.7 0 0 1-4.1.01 4.9 4.9 0 0 1-2.87-3.14 9 9 0 0 1-.42-2.87h3.17a7 7 0 0 0 .14 1.51q.15.62.43.99a2 2 0 0 0 .71.55q.44.17.99.17.63 0 1-.3.36-.29.53-.78c.17-.49.16-.7.16-1.12"/></symbol><use xlink:href="#sprite-logo" width="100" height="20" y="32"/><view id="sprite-logo-view" viewBox="0 32 100 20"/><symbol id="sprite-ok" fill="none" viewBox="0 0 10 17"><path fill="#030A1A" d="M4.68 2.89c.9 0 1.63.75 1.63 1.68s-.73 1.68-1.63 1.68-1.63-.75-1.63-1.68.73-1.68 1.63-1.68m0 5.74a4 4 0 0 0 3.94-4.06 4 4 0 0 0-3.94-4.06 4 4 0 0 0-3.93 4.06 4 4 0 0 0 3.93 4.06m1.6 3.31a7 7 0 0 0 2.28-.97c.53-.35.7-1.09.36-1.64a1.13 1.13 0 0 0-1.6-.38 4.9 4.9 0 0 1-5.29 0 1.13 1.13 0 0 0-1.59.38c-.34.55-.17 1.29.36 1.64a7 7 0 0 0 2.29.97l-2.2 2.27a1.2 1.2 0 0 0 0 1.68 1.14 1.14 0 0 0 1.63 0l2.16-2.23 2.16 2.23c.45.47 1.18.47 1.63 0s.45-1.21 0-1.68l-2.2-2.27Z"/></symbol><use xlink:href="#sprite-ok" width="10" height="17" y="52"/><view id="sprite-ok-view" viewBox="0 52 10 17"/><symbol id="sprite-reddit" fill="none" viewBox="0 0 15 15"><path fill="#030A1A" d="M8.85.56c-.44 0-.86.22-1.13.55a3 3 0 0 0-.52 1.14 9 9 0 0 0-.24 2.1 7 7 0 0 0-3.33 1.02 2 2 0 0 0-1.28-.5c-.5 0-.98.23-1.33.67-.68.85-.6 2.24.18 3.06q-.08.39-.08.78c0 2.8 2.86 5.06 6.38 5.06s6.38-2.26 6.38-5.06q0-.39-.08-.78c.78-.82.86-2.21.18-3.06a1.7 1.7 0 0 0-1.33-.67 2 2 0 0 0-1.28.5 7 7 0 0 0-3.31-1.03 8 8 0 0 1 .18-1.75q.12-.45.27-.65c.1-.12.17-.17.34-.17.36 0 .4.12.63.4q.14.23.43.5c.2.17.5.32.83.32v-1.22c-.09 0-.1 0-.17-.05l-.27-.35c-.25-.32-.73-.81-1.45-.81m3.51.11c-.84 0-1.52.77-1.52 1.71 0 .95.68 1.71 1.52 1.71s1.52-.76 1.52-1.7c0-.95-.68-1.72-1.52-1.72m0 .6c.54 0 .98.5.98 1.11s-.44 1.1-.98 1.1-.98-.49-.98-1.1c0-.6.44-1.1.98-1.1Zm-4.86 4.02c3 0 5.52 1.88 5.52 4.1s-2.53 4.08-5.52 4.08c-3 0-5.52-1.87-5.52-4.09s2.53-4.09 5.52-4.09m-5.13.55q.22 0 .45.12-.82.7-1.26 1.6c-.2-.47-.15-1.06.1-1.37a1 1 0 0 1 .7-.35Zm10.26 0q.43 0 .71.35c.25.3.3.9.1 1.37a5 5 0 0 0-1.26-1.6q.23-.1.45-.12m-7.3 1.53c-.53 0-.97.5-.97 1.1s.44 1.1.98 1.1.98-.5.98-1.1-.44-1.1-.98-1.1Zm4.33 0c-.54 0-.98.5-.98 1.1s.44 1.1.98 1.1.98-.5.98-1.1-.44-1.1-.98-1.1m-4.84 3.75c.34.8 1.4 1.57 2.68 1.57s2.36-.77 2.7-1.57c-.62.45-1.6.76-2.7.76s-2.06-.31-2.68-.77Z"/></symbol><use xlink:href="#sprite-reddit" width="15" height="15" y="69"/><view id="sprite-reddit-view" viewBox="0 69 15 15"/><symbol id="sprite-rubl" fill="none" viewBox="0 0 24 34"><path fill="#102654" fill-rule="evenodd" d="M14.8 5.21h-6.8v8.65h6.8c2.43 0 4.4-1.94 4.4-4.32a4.36 4.36 0 0 0-4.4-4.33m-11.6-4.71v18.07h11.6c5.08 0 9.2-4.04 9.2-9.03a9.1 9.1 0 0 0-9.2-9.04z" clip-rule="evenodd"/><path fill="#102654" fill-rule="evenodd" d="M0 13.86h4.8v4.71h-4.8z" clip-rule="evenodd"/><path fill="#102654" fill-rule="evenodd" d="M2.93 22.75v-8.1h4.8v8.1h9.07v4.72h-9.07v6.03h-4.8v-6.03h-2.93v-4.72z" clip-rule="evenodd"/></symbol><use xlink:href="#sprite-rubl" width="24" height="34" y="84"/><view id="sprite-rubl-view" viewBox="0 84 24 34"/><symbol id="sprite-vk" fill="none" viewBox="0 0 15 15"><path fill="#030A1A" d="M8.72 9.05c.45-.14 1.01.95 1.62 1.36.45.32.8.25.8.25l1.6-.02s.84-.06.45-.72c-.04-.06-.24-.5-1.2-1.4-1-.95-.87-.8.34-2.43q1.1-1.48.94-1.87c-.08-.25-.63-.18-.63-.18l-1.8.01q-.3-.02-.4.24s-.3.77-.67 1.43c-.8 1.38-1.13 1.45-1.26 1.37-.31-.2-.23-.8-.23-1.24 0-1.34.2-1.9-.4-2.04a3 3 0 0 0-.84-.09c-.65 0-1.2 0-1.5.16-.2.1-.37.33-.27.34.12.02.39.07.53.27.19.26.18.83.18.83s.11 1.58-.25 1.77c-.24.14-.58-.14-1.3-1.4-.36-.63-.64-1.35-.64-1.35s-.05-.13-.15-.2a1 1 0 0 0-.28-.11h-1.72s-.26.02-.35.13 0 .3 0 .3 1.34 3.2 2.86 4.8c1.4 1.47 3 1.38 3 1.38h.71s.22-.03.33-.15c.1-.1.1-.32.1-.32s-.01-.97.43-1.12"/></symbol><use xlink:href="#sprite-vk" width="15" height="15" y="118"/><view id="sprite-vk-view" viewBox="0 118 15 15"/></svg>